HIERARCHY
ROOT hip
{
	OFFSET 0.000000 0.000000 0.000000 
	CHANNELS 6 Xposition Yposition Zposition Xrotation Zrotation Yrotation
	JOINT abdomen
	{
		OFFSET 0.000000 3.402643 0.000000 
		CHANNELS 3 Xrotation Zrotation Yrotation
		JOINT chest
		{
			OFFSET 0.000000 8.438565 -0.680529 
			CHANNELS 3 Xrotation Zrotation Yrotation
			JOINT neck
			{
				OFFSET 0.000000 10.207942 -0.272212 
				CHANNELS 3 Xrotation Zrotation Yrotation
				JOINT head
				{
					OFFSET 0.000000 3.130431 0.000000 
					CHANNELS 3 Xrotation Zrotation Yrotation
					End Site
					{
						OFFSET 0.000000 3.130435 0.000000 
					}
				}
			}
			JOINT lCollar
			{
				OFFSET 3.470700 6.669187 -0.816635 
				CHANNELS 3 Yrotation Zrotation Xrotation
				JOINT lShldr
				{
					OFFSET 3.198488 0.000000 0.000000 
					CHANNELS 3 Zrotation Yrotation Xrotation
					JOINT lForeArm
					{
						OFFSET 10.139888 0.000000 0.000000 
						CHANNELS 3 Yrotation Zrotation Xrotation
						JOINT lHand
						{
							OFFSET 8.370511 0.000000 0.000000 
							CHANNELS 3 Zrotation Yrotation Xrotation
							End Site
							{
								OFFSET 4.083176 0.000000 0.000000 
							}
						}
					}
				}
			}
			JOINT rCollar
			{
				OFFSET -3.470700 6.669187 -0.816635 
				CHANNELS 3 Yrotation Zrotation Xrotation
				JOINT rShldr
				{
					OFFSET -3.198488 0.000000 0.000000 
					CHANNELS 3 Zrotation Yrotation Xrotation
					JOINT rForeArm
					{
						OFFSET -10.139888 0.000000 0.000000 
						CHANNELS 3 Yrotation Zrotation Xrotation
						JOINT rHand
						{
							OFFSET -8.370511 0.000000 0.000000 
							CHANNELS 3 Zrotation Yrotation Xrotation
							End Site
							{
								OFFSET -4.083176 0.000000 0.000000 
							}
						}
					}
				}
			}
		}
	}
	JOINT lThigh
	{
		OFFSET 5.308129 -1.633274 1.361059 
		CHANNELS 3 Xrotation Zrotation Yrotation
		JOINT lShin
		{
			OFFSET -2.041588 -20.007561 0.000000 
			CHANNELS 3 Xrotation Zrotation Yrotation
			JOINT lFoot
			{
				OFFSET 0.000000 -19.190928 -1.224953 
				CHANNELS 3 Xrotation Yrotation Zrotation
				End Site
				{
					OFFSET 0.000000 -2.449906 4.627600 
				}
			}
		}
	}
	JOINT rThigh
	{
		OFFSET -5.308129 -1.633274 1.361059 
		CHANNELS 3 Xrotation Zrotation Yrotation
		JOINT rShin
		{
			OFFSET 2.041588 -20.007561 0.000000 
			CHANNELS 3 Xrotation Zrotation Yrotation
			JOINT rFoot
			{
				OFFSET 0.000000 -19.190928 -1.224953 
				CHANNELS 3 Xrotation Yrotation Zrotation
				End Site
				{
					OFFSET 0.000000 -2.449906 4.627600 
				}
			}
		}
	}
}
MOTION
Frames: 10
Frame Time: 0.016667
-5.607540 49.268147 100.764259 -12.887892 0.755782 -7.158736 35.426945 -3.211003 1.965825 -17.668404 3.422307 3.228562 3.872868 -2.480094 0.996851 0.157536 -2.664909 1.651784 -5.098933 -7.479601 -0.009644 -71.954773 17.159594 -5.864026 -32.315250 3.992985 50.926819 -11.576050 18.096724 -3.639432 12.450953 -1.320465 -0.009533 69.191391 -7.117188 14.591699 49.689461 -3.098699 36.880543 -10.176474 -0.722626 0.119781 -7.239698 -2.332362 1.807772 33.689114 -1.015509 -2.757096 1.505008 -2.471602 -12.152105 -8.306248 -10.092659 0.821040 78.003616 -1.786978 4.140148 22.054510 13.099838 7.224308 
-5.706360 49.615780 102.128891 -12.769267 0.582411 -6.289332 35.594563 -2.958563 0.968028 -17.931740 4.362160 2.154838 4.018197 -2.597279 0.977329 0.067391 -2.743002 1.652238 -4.932890 -7.313614 -0.009650 -72.292366 15.679648 -3.586871 -33.811691 3.892254 49.597370 -12.264227 17.028416 -3.640040 12.363041 -1.447404 -0.009536 69.032715 -9.921420 14.837160 48.652508 -3.160391 37.744186 -10.186181 -0.693770 0.114724 -5.198414 -2.272894 0.978271 33.200813 -1.035046 -2.728195 0.619745 -2.427470 -12.179865 -11.117385 -9.331341 0.260751 76.219261 -1.679366 4.139497 21.553045 13.896583 7.043850 
-5.805192 49.963341 103.493507 -12.655007 0.398601 -5.419994 35.752880 -2.714844 -0.019972 -18.221703 5.292053 1.069823 4.173074 -2.704693 0.967563 -0.022473 -2.811332 1.652236 -4.768069 -7.156580 -0.019312 -72.685921 14.223847 -1.311762 -35.321003 3.835857 48.268990 -12.939372 15.973040 -3.615035 12.265361 -1.584106 -0.009539 68.861404 -12.731936 15.089293 47.622372 -3.232238 38.603725 -10.205529 -0.657017 0.098430 -3.183072 -2.178097 0.152574 32.702572 -1.046413 -2.706160 -0.293336 -2.353825 -12.218523 -13.929404 -8.589989 -0.324122 74.427238 -1.552165 4.100491 21.051683 14.731050 6.859932 
-5.919652 50.194023 104.811623 -12.164744 0.486964 -4.209081 35.641777 -2.577521 -1.241614 -18.516350 6.230436 -0.186571 2.880033 -2.324024 0.742765 1.118827 -3.016706 1.378642 -4.503200 -7.294155 -0.009657 -72.391380 12.679230 1.012464 -37.328201 3.710490 46.717228 -12.903337 15.573876 -3.518851 12.265333 -1.750122 -0.009538 68.449081 -15.548316 14.962299 46.859371 -3.254748 39.020195 -9.581168 -0.985452 0.146512 -1.753461 -2.047000 -0.225112 32.380318 -1.074072 -2.677927 -1.010964 -2.861547 -12.259177 -16.383366 -8.260233 -1.192927 71.047379 -1.288746 4.052216 20.511337 14.295914 7.158355 
-6.034121 50.424583 106.129715 -11.680016 0.565631 -2.998190 35.534580 -2.448928 -2.453522 -18.832861 7.165707 -1.446259 1.603532 -1.943280 0.517612 2.252873 -3.222068 1.095314 -4.249319 -7.440683 -0.009657 -72.164177 11.119287 3.306132 -39.351273 3.641188 45.164402 -12.880760 15.171881 -3.432077 12.275073 -1.906373 -0.009537 68.029037 -18.371351 14.862103 46.100128 -3.280074 39.426018 -8.957004 -1.314974 0.187430 -0.311562 -1.909594 -0.601105 32.057461 -1.083955 -2.673935 -1.733278 -3.358632 -12.323686 -18.834084 -7.967404 -2.078670 67.676277 -1.035474 4.008960 19.976416 13.846944 7.481070 
-6.165672 50.481625 107.444565 -11.209021 0.546591 -1.845712 35.448772 -2.241958 -3.479246 -19.020449 8.058496 -2.553588 0.901486 -1.757735 0.537156 2.378899 -3.241585 1.105063 -4.190740 -7.528584 -0.009656 -71.797646 9.551910 4.878748 -41.719879 3.552822 44.143009 -12.285840 15.052388 -3.246471 12.304337 -2.111456 -0.009535 67.317535 -21.218260 14.534363 45.632069 -3.305285 39.866241 -8.741838 -1.228798 0.169146 0.563819 -1.447726 -0.294766 32.810196 -1.064486 -2.697111 -2.622097 -4.250005 -12.429302 -20.505507 -7.675066 -2.796669 62.794384 -0.712537 3.898272 19.248507 12.783970 7.977506 
-6.297220 50.538555 108.759453 -10.728831 0.517541 -0.683566 35.365005 -2.034743 -4.495244 -19.223499 8.946780 -3.666993 0.208966 -1.581954 0.566460 2.504170 -3.270855 1.124560 -4.132162 -7.616483 -0.009654 -71.482300 7.980781 6.439454 -44.088581 3.499153 43.107925 -11.701209 14.920624 -3.061637 12.323833 -2.326303 -0.009533 66.597084 -24.059193 14.238738 45.158115 -3.348021 40.304630 -8.536694 -1.150687 0.162809 1.464370 -1.005483 -0.004200 33.534058 -1.040479 -2.707698 -3.535471 -5.139725 -12.572901 -22.192633 -7.390987 -3.510395 57.903091 -0.390424 3.740505 18.522516 11.733047 8.478086 
-6.427424 50.435944 110.094627 -10.563530 0.703119 0.234477 35.589958 -2.099940 -5.423786 -19.111166 9.764801 -4.536915 -0.816397 -1.367098 0.654344 2.678081 -3.553880 1.222593 -4.141915 -7.548122 -0.009656 -71.159790 6.002278 7.015191 -46.450134 3.444282 42.474152 -11.624274 14.809483 -3.018708 12.196867 -2.394641 -0.009537 65.796944 -26.557243 13.219073 44.890640 -3.352528 40.299213 -8.184267 -0.803683 0.105709 2.752265 -0.888400 -0.579177 33.962471 -1.015761 -2.770971 -4.131569 -5.600420 -12.648552 -22.642303 -7.400942 -3.861584 51.381634 0.009870 3.518845 17.144865 10.401737 9.161077 
-6.557605 50.333263 111.429840 -10.392283 0.888492 1.152508 35.817059 -2.164377 -6.352330 -19.012657 10.578835 -5.403021 -1.840779 -1.142485 0.732471 2.841029 -3.846637 1.321285 -4.161437 -7.489525 -0.009657 -70.864944 4.026355 7.576803 -48.822762 3.411873 41.829517 -11.557545 14.697751 -2.978542 12.060139 -2.453212 -0.009541 65.033783 -29.065470 12.217231 44.616497 -3.349403 40.292763 -7.832203 -0.456034 0.052871 4.029249 -0.751350 -1.179132 34.382034 -0.996225 -2.805981 -4.719199 -6.025449 -12.734554 -23.081314 -7.410563 -4.212335 44.847992 0.380919 3.245279 15.781796 9.073366 9.778000 
-6.657634 50.159924 112.771317 -9.993307 1.434818 1.826822 35.821274 -2.595932 -7.312630 -19.055511 11.293231 -6.174151 -2.424602 -0.771383 0.927782 2.866447 -4.402615 1.586358 -4.337174 -7.235590 -0.009660 -70.755737 2.359563 7.413376 -51.053467 3.327257 40.906109 -11.254704 15.137116 -2.973428 12.069838 -2.853605 -0.009538 64.441910 -31.661650 11.591520 44.541107 -3.333168 40.046291 -8.408565 -0.600389 0.078873 4.841469 -1.005609 -2.075943 35.144039 -0.957461 -2.842737 -4.763521 -6.489643 -12.797960 -22.614002 -7.860427 -4.256764 36.251541 0.845560 2.806081 15.478831 8.577961 9.963717 
